<svg width="30" height="30" viewBox="0 0 30 30" fill="none" xmlns="http://www.w3.org/2000/svg">
<circle cx="15" cy="15" r="15" fill="#E0A58E"/>
<path d="M20.374 9.28472C18.9001 7.81597 16.935 7 14.8606 7C10.5482 7 7.05459 10.4815 7.05459 14.7789C7.05459 16.1389 7.4367 17.4988 8.09175 18.6412L7 22.6667L11.1487 21.5787C12.295 22.1771 13.5505 22.5035 14.8606 22.5035C19.1731 22.5035 22.6667 19.022 22.6667 14.7245C22.6121 12.7118 21.8478 10.7535 20.374 9.28472ZM18.6272 17.5532C18.4634 17.9884 17.6992 18.4236 17.3171 18.478C16.9895 18.5324 16.5528 18.5324 16.1161 18.4236C15.8432 18.3148 15.4611 18.206 15.0244 17.9884C13.0592 17.1725 11.8037 15.2141 11.6945 15.0509C11.5854 14.9421 10.8757 14.0174 10.8757 13.0382C10.8757 12.059 11.367 11.6238 11.5308 11.4062C11.6945 11.1887 11.9129 11.1887 12.0767 11.1887C12.1858 11.1887 12.3496 11.1887 12.4588 11.1887C12.5679 11.1887 12.7317 11.1343 12.8955 11.515C13.0592 11.8958 13.4413 12.875 13.4959 12.9294C13.5505 13.0382 13.5505 13.147 13.4959 13.2558C13.4413 13.3646 13.3868 13.4734 13.2776 13.5822C13.1684 13.691 13.0592 13.8542 13.0046 13.9086C12.8955 14.0174 12.7863 14.1262 12.8955 14.2894C13.0046 14.5069 13.3868 15.1053 13.9872 15.6493C14.7515 16.3021 15.3519 16.5197 15.5703 16.6285C15.7886 16.7373 15.8978 16.6829 16.007 16.5741C16.1161 16.4653 16.4983 16.0301 16.6074 15.8125C16.7166 15.5949 16.8804 15.6493 17.0441 15.7037C17.2079 15.7581 18.1905 16.2477 18.3542 16.3565C18.5726 16.4653 18.6818 16.5197 18.7364 16.5741C18.7909 16.7373 18.7909 17.1181 18.6272 17.5532Z" fill="white"/>
</svg>
